<svg xmlns="http://www.w3.org/2000/svg" height="512pt" version="1.1" viewBox="0 -44 512 512" width="512pt">
<g id="surface1">
<path d="M 388.414062 247.171875 C 378.675781 247.203125 370.789062 255.089844 370.757812 264.828125 L 370.757812 406.070312 C 370.789062 415.808594 378.675781 423.695312 388.414062 423.722656 C 398.132812 423.652344 405.996094 415.789062 406.066406 406.070312 L 406.066406 264.828125 C 406.039062 255.089844 398.152344 247.203125 388.414062 247.171875 Z M 388.414062 247.171875 " style=" stroke:none;fill-rule:nonzero;fill:rgb(25.490196%,46.27451%,61.960784%);fill-opacity:1;" />
<path d="M 123.585938 247.171875 C 113.867188 247.246094 106.003906 255.105469 105.929688 264.828125 L 105.929688 406.070312 C 105.929688 415.820312 113.835938 423.722656 123.585938 423.722656 C 133.335938 423.722656 141.242188 415.820312 141.242188 406.070312 L 141.242188 264.828125 C 141.210938 255.089844 133.324219 247.203125 123.585938 247.171875 Z M 123.585938 247.171875 " style=" stroke:none;fill-rule:nonzero;fill:rgb(25.490196%,46.27451%,61.960784%);fill-opacity:1;" />
<path d="M 273.65625 167.722656 C 273.65625 177.476562 265.75 185.378906 256 185.378906 C 246.25 185.378906 238.34375 177.476562 238.34375 167.722656 C 238.34375 157.972656 246.25 150.070312 256 150.070312 C 265.75 150.070312 273.65625 157.972656 273.65625 167.722656 Z M 273.65625 167.722656 " style=" stroke:none;fill-rule:nonzero;fill:rgb(93.333333%,78.823529%,66.27451%);fill-opacity:1;" />
<path d="M 300.136719 220.691406 C 271.890625 232.460938 240.109375 232.460938 211.863281 220.691406 L 211.863281 264.828125 L 300.136719 264.828125 Z M 300.136719 220.691406 " style=" stroke:none;fill-rule:nonzero;fill:rgb(25.490196%,46.27451%,61.960784%);fill-opacity:1;" />
<path d="M 238.34375 167.722656 C 238.375 157.984375 246.261719 150.097656 256 150.070312 L 256 35.3125 C 212.140625 35.359375 176.601562 70.902344 176.550781 114.757812 C 176.601562 70.902344 212.140625 35.359375 256 35.3125 L 256 0 C 192.621094 0.0429688 141.277344 51.457031 141.320312 114.835938 C 141.34375 150.113281 157.589844 183.421875 185.378906 205.152344 C 205.523438 220.960938 230.394531 229.539062 256 229.515625 L 256 185.378906 C 246.261719 185.351562 238.375 177.464844 238.34375 167.722656 Z M 238.34375 167.722656 " style=" stroke:none;fill-rule:nonzero;fill:rgb(93.333333%,78.823529%,66.27451%);fill-opacity:1;" />
<path d="M 256 0 L 256 35.3125 C 299.855469 35.359375 335.398438 70.902344 335.449219 114.757812 C 335.398438 70.902344 299.855469 35.359375 256 35.3125 L 256 150.070312 C 265.75 150.070312 273.65625 157.972656 273.65625 167.722656 C 273.65625 177.476562 265.75 185.378906 256 185.378906 L 256 229.515625 C 281.605469 229.539062 306.476562 220.960938 326.621094 205.152344 C 376.542969 166.105469 385.363281 93.984375 346.316406 44.058594 C 324.582031 16.273438 291.277344 0.0234375 256 0 Z M 256 0 " style=" stroke:none;fill-rule:nonzero;fill:rgb(94.509804%,83.137255%,72.941176%);fill-opacity:1;" />
<path d="M 406.070312 264.828125 L 512 264.828125 L 512 335.449219 L 406.070312 335.449219 Z M 406.070312 264.828125 " style=" stroke:none;fill-rule:nonzero;fill:rgb(47.058824%,72.54902%,92.156863%);fill-opacity:1;" />
<path d="M 406.070312 335.449219 L 512 335.449219 L 512 406.070312 L 406.070312 406.070312 Z M 406.070312 335.449219 " style=" stroke:none;fill-rule:nonzero;fill:rgb(35.294118%,66.666667%,90.588235%);fill-opacity:1;" />
<path d="M 0 264.828125 L 105.929688 264.828125 L 105.929688 335.449219 L 0 335.449219 Z M 0 264.828125 " style=" stroke:none;fill-rule:nonzero;fill:rgb(47.058824%,72.54902%,92.156863%);fill-opacity:1;" />
<path d="M 0 335.449219 L 105.929688 335.449219 L 105.929688 406.070312 L 0 406.070312 Z M 0 335.449219 " style=" stroke:none;fill-rule:nonzero;fill:rgb(35.294118%,66.666667%,90.588235%);fill-opacity:1;" />
<path d="M 300.136719 264.828125 L 141.242188 264.828125 L 141.242188 335.449219 L 370.757812 335.449219 L 370.757812 264.828125 Z M 300.136719 264.828125 " style=" stroke:none;fill-rule:nonzero;fill:rgb(47.058824%,72.54902%,92.156863%);fill-opacity:1;" />
<path d="M 141.242188 335.449219 L 370.757812 335.449219 L 370.757812 406.070312 L 141.242188 406.070312 Z M 141.242188 335.449219 " style=" stroke:none;fill-rule:nonzero;fill:rgb(35.294118%,66.666667%,90.588235%);fill-opacity:1;" />
<path d="M 256 194.207031 C 241.375 194.207031 229.515625 182.351562 229.515625 167.722656 C 229.515625 153.097656 241.375 141.242188 256 141.242188 C 270.625 141.242188 282.480469 153.097656 282.480469 167.722656 C 282.480469 182.351562 270.625 194.207031 256 194.207031 Z M 256 158.894531 C 251.125 158.894531 247.171875 162.847656 247.171875 167.722656 C 247.171875 172.601562 251.125 176.550781 256 176.550781 C 260.875 176.550781 264.828125 172.601562 264.828125 167.722656 C 264.828125 162.847656 260.875 158.894531 256 158.894531 Z M 256 158.894531 " style=" stroke:none;fill-rule:nonzero;fill:rgb(10.196078%,43.529412%,69.019608%);fill-opacity:1;" />
<path d="M 335.449219 123.585938 C 330.574219 123.585938 326.621094 119.632812 326.621094 114.757812 C 326.621094 75.753906 295 44.136719 256 44.136719 C 216.996094 44.136719 185.378906 75.753906 185.378906 114.757812 C 185.378906 119.632812 181.425781 123.585938 176.550781 123.585938 C 171.675781 123.585938 167.722656 119.632812 167.722656 114.757812 C 167.722656 66.003906 207.246094 26.484375 256 26.484375 C 304.753906 26.484375 344.277344 66.003906 344.277344 114.757812 C 344.277344 119.632812 340.324219 123.585938 335.449219 123.585938 Z M 335.449219 123.585938 " style=" stroke:none;fill-rule:nonzero;fill:rgb(23.921569%,60.392157%,88.627451%);fill-opacity:1;" />
<path d="M 256 194.207031 C 241.375 194.207031 229.515625 182.351562 229.515625 167.722656 C 229.515625 153.097656 241.375 141.242188 256 141.242188 C 270.625 141.242188 282.480469 153.097656 282.480469 167.722656 C 282.480469 182.351562 270.625 194.207031 256 194.207031 Z M 256 158.894531 C 251.125 158.894531 247.171875 162.847656 247.171875 167.722656 C 247.171875 172.601562 251.125 176.550781 256 176.550781 C 260.875 176.550781 264.828125 172.601562 264.828125 167.722656 C 264.828125 162.847656 260.875 158.894531 256 158.894531 Z M 256 158.894531 " style=" stroke:none;fill-rule:nonzero;fill:rgb(10.196078%,43.529412%,69.019608%);fill-opacity:1;" />
<path d="M 256 158.894531 C 251.125 158.894531 247.171875 154.945312 247.171875 150.070312 L 247.171875 79.449219 C 247.171875 74.574219 251.125 70.621094 256 70.621094 C 260.875 70.621094 264.828125 74.574219 264.828125 79.449219 L 264.828125 150.070312 C 264.828125 154.945312 260.875 158.894531 256 158.894531 Z M 256 158.894531 " style=" stroke:none;fill-rule:nonzero;fill:rgb(10.196078%,43.529412%,69.019608%);fill-opacity:1;" />
</g>
</svg>